<svg width="36" height="36" viewBox="0 0 36 36" fill="none" xmlns="http://www.w3.org/2000/svg">
<g filter="url(#filter0_i_1_2)">
<path d="M18 34.4782C8.06 34.4782 0 26.9832 0 17.7391C0 8.49507 8.06 1 18 1C27.94 1 36 8.49507 36 17.7391C36 22.0081 34.282 25.9017 31.454 28.858C30.59 29.7649 29.974 30.9681 30.282 32.1875C30.4778 32.9618 30.7728 33.7041 31.1576 34.396C31.5301 35.0659 31.1885 35.9667 30.4225 35.993C30.2818 35.9979 30.1409 36.0002 30 36C27.6057 36 25.3754 35.2887 23.5028 34.0629C23.2509 33.898 22.9419 33.8425 22.6498 33.915C21.1663 34.2835 19.6069 34.4782 18 34.4782Z" fill="#26BD74"/>
<path d="M18 34.4782C8.06 34.4782 0 26.9832 0 17.7391C0 8.49507 8.06 1 18 1C27.94 1 36 8.49507 36 17.7391C36 22.0081 34.282 25.9017 31.454 28.858C30.59 29.7649 29.974 30.9681 30.282 32.1875C30.4778 32.9618 30.7728 33.7041 31.1576 34.396C31.5301 35.0659 31.1885 35.9667 30.4225 35.993C30.2818 35.9979 30.1409 36.0002 30 36C27.6057 36 25.3754 35.2887 23.5028 34.0629C23.2509 33.898 22.9419 33.8425 22.6498 33.915C21.1663 34.2835 19.6069 34.4782 18 34.4782Z" fill="url(#paint0_radial_1_2)" fill-opacity="0.8"/>
<path d="M18 34.4782C8.06 34.4782 0 26.9832 0 17.7391C0 8.49507 8.06 1 18 1C27.94 1 36 8.49507 36 17.7391C36 22.0081 34.282 25.9017 31.454 28.858C30.59 29.7649 29.974 30.9681 30.282 32.1875C30.4778 32.9618 30.7728 33.7041 31.1576 34.396C31.5301 35.0659 31.1885 35.9667 30.4225 35.993C30.2818 35.9979 30.1409 36.0002 30 36C27.6057 36 25.3754 35.2887 23.5028 34.0629C23.2509 33.898 22.9419 33.8425 22.6498 33.915C21.1663 34.2835 19.6069 34.4782 18 34.4782Z" fill="url(#paint1_radial_1_2)" fill-opacity="0.54"/>
</g>
<g filter="url(#filter1_d_1_2)">
<path d="M24 13L29.25 18.1632L24 23.3264" stroke="white" stroke-width="2.4" stroke-linecap="round" stroke-linejoin="round"/>
<path d="M24 13L29.25 18.1632L24 23.3264" stroke="url(#paint2_linear_1_2)" stroke-width="2.4" stroke-linecap="round" stroke-linejoin="round"/>
<path d="M24 13L29.25 18.1632L24 23.3264" stroke="url(#paint3_linear_1_2)" stroke-width="2.4" stroke-linecap="round" stroke-linejoin="round"/>
</g>
<g filter="url(#filter2_d_1_2)">
<path d="M20.5 10L16 26.2273" stroke="url(#paint4_linear_1_2)" stroke-width="2.4" stroke-linecap="round" stroke-linejoin="round"/>
</g>
<g filter="url(#filter3_d_1_2)">
<path d="M12.25 23.3264L7 18.1632L12.25 13" stroke="white" stroke-width="2.4" stroke-linecap="round" stroke-linejoin="round"/>
<path d="M12.25 23.3264L7 18.1632L12.25 13" stroke="url(#paint5_linear_1_2)" stroke-width="2.4" stroke-linecap="round" stroke-linejoin="round"/>
<path d="M12.25 23.3264L7 18.1632L12.25 13" stroke="url(#paint6_linear_1_2)" stroke-width="2.4" stroke-linecap="round" stroke-linejoin="round"/>
</g>
<defs>
<filter id="filter0_i_1_2" x="-4" y="-3" width="40" height="39" filterUnits="userSpaceOnUse" color-interpolation-filters="sRGB">
<feFlood flood-opacity="0" result="BackgroundImageFix"/>
<feBlend mode="normal" in="SourceGraphic" in2="BackgroundImageFix" result="shape"/>
<feColorMatrix in="SourceAlpha" type="matrix" values="0 0 0 0 0 0 0 0 0 0 0 0 0 0 0 0 0 0 127 0" result="hardAlpha"/>
<feOffset dx="-4" dy="-4"/>
<feGaussianBlur stdDeviation="3.5"/>
<feComposite in2="hardAlpha" operator="arithmetic" k2="-1" k3="1"/>
<feColorMatrix type="matrix" values="0 0 0 0 0 0 0 0 0 0 0 0 0 0 0 0 0 0 0.25 0"/>
<feBlend mode="normal" in2="shape" result="effect1_innerShadow_1_2"/>
</filter>
<filter id="filter1_d_1_2" x="20.3" y="9.6" width="13.65" height="18.7264" filterUnits="userSpaceOnUse" color-interpolation-filters="sRGB">
<feFlood flood-opacity="0" result="BackgroundImageFix"/>
<feColorMatrix in="SourceAlpha" type="matrix" values="0 0 0 0 0 0 0 0 0 0 0 0 0 0 0 0 0 0 127 0" result="hardAlpha"/>
<feOffset dx="0.5" dy="0.8"/>
<feGaussianBlur stdDeviation="1.5"/>
<feComposite in2="hardAlpha" operator="out"/>
<feColorMatrix type="matrix" values="0 0 0 0 0 0 0 0 0 0 0 0 0 0 0 0 0 0 0.4 0"/>
<feBlend mode="normal" in2="BackgroundImageFix" result="effect1_dropShadow_1_2"/>
<feBlend mode="normal" in="SourceGraphic" in2="effect1_dropShadow_1_2" result="shape"/>
</filter>
<filter id="filter2_d_1_2" x="12.2997" y="6.5997" width="12.9006" height="24.6279" filterUnits="userSpaceOnUse" color-interpolation-filters="sRGB">
<feFlood flood-opacity="0" result="BackgroundImageFix"/>
<feColorMatrix in="SourceAlpha" type="matrix" values="0 0 0 0 0 0 0 0 0 0 0 0 0 0 0 0 0 0 127 0" result="hardAlpha"/>
<feOffset dx="0.5" dy="0.8"/>
<feGaussianBlur stdDeviation="1.5"/>
<feComposite in2="hardAlpha" operator="out"/>
<feColorMatrix type="matrix" values="0 0 0 0 0 0 0 0 0 0 0 0 0 0 0 0 0 0 0.4 0"/>
<feBlend mode="normal" in2="BackgroundImageFix" result="effect1_dropShadow_1_2"/>
<feBlend mode="normal" in="SourceGraphic" in2="effect1_dropShadow_1_2" result="shape"/>
</filter>
<filter id="filter3_d_1_2" x="3.3" y="9.6" width="13.65" height="18.7264" filterUnits="userSpaceOnUse" color-interpolation-filters="sRGB">
<feFlood flood-opacity="0" result="BackgroundImageFix"/>
<feColorMatrix in="SourceAlpha" type="matrix" values="0 0 0 0 0 0 0 0 0 0 0 0 0 0 0 0 0 0 127 0" result="hardAlpha"/>
<feOffset dx="0.5" dy="0.8"/>
<feGaussianBlur stdDeviation="1.5"/>
<feComposite in2="hardAlpha" operator="out"/>
<feColorMatrix type="matrix" values="0 0 0 0 0 0 0 0 0 0 0 0 0 0 0 0 0 0 0.4 0"/>
<feBlend mode="normal" in2="BackgroundImageFix" result="effect1_dropShadow_1_2"/>
<feBlend mode="normal" in="SourceGraphic" in2="effect1_dropShadow_1_2" result="shape"/>
</filter>
<radialGradient id="paint0_radial_1_2" cx="0" cy="0" r="1" gradientUnits="userSpaceOnUse" gradientTransform="translate(11 11.6522) rotate(52.7717) scale(30.5789 31.7886)">
<stop stop-color="#43AEC5"/>
<stop offset="1" stop-color="#3B93A6" stop-opacity="0"/>
</radialGradient>
<radialGradient id="paint1_radial_1_2" cx="0" cy="0" r="1" gradientUnits="userSpaceOnUse" gradientTransform="translate(10 8.10145) rotate(48.7755) scale(12.1394 12.6445)">
<stop stop-color="#B2EEFB"/>
<stop offset="1" stop-color="white" stop-opacity="0"/>
</radialGradient>
<linearGradient id="paint2_linear_1_2" x1="24.5" y1="21.0496" x2="26.5" y2="23.0496" gradientUnits="userSpaceOnUse">
<stop stop-color="white"/>
<stop offset="0.462885" stop-color="white"/>
<stop offset="1" stop-color="#B4B4B4"/>
</linearGradient>
<linearGradient id="paint3_linear_1_2" x1="28" y1="14.5496" x2="26.5" y2="16.0496" gradientUnits="userSpaceOnUse">
<stop stop-color="#626262" stop-opacity="0.44"/>
<stop offset="1" stop-color="white" stop-opacity="0"/>
<stop offset="1" stop-color="white" stop-opacity="0"/>
</linearGradient>
<linearGradient id="paint4_linear_1_2" x1="17" y1="16" x2="20.5" y2="17" gradientUnits="userSpaceOnUse">
<stop stop-color="white"/>
<stop offset="0.495294" stop-color="white"/>
<stop offset="1" stop-color="#989898"/>
</linearGradient>
<linearGradient id="paint5_linear_1_2" x1="9.5" y1="13.5496" x2="11.5" y2="15.5496" gradientUnits="userSpaceOnUse">
<stop stop-color="white"/>
<stop offset="0.578396" stop-color="white"/>
<stop offset="1" stop-color="#C1C1C1"/>
</linearGradient>
<linearGradient id="paint6_linear_1_2" x1="11" y1="19.0496" x2="9.5" y2="20.5496" gradientUnits="userSpaceOnUse">
<stop stop-color="white" stop-opacity="0"/>
<stop offset="1" stop-color="white"/>
</linearGradient>
</defs>
</svg>
