<svg xmlns="http://www.w3.org/2000/svg" width="194" height="29" fill="none"><g clip-path="url(#a)"><g filter="url(#b)"><path fill="#26BD74" d="M13.5 26.859C6.045 26.859 0 21.237 0 14.304S6.045 1.75 13.5 1.75 27 7.371 27 14.304c0 3.202-1.288 6.122-3.41 8.34-.648.68-1.11 1.582-.878 2.497.146.58.368 1.137.656 1.656.28.502.023 1.178-.551 1.198a8.864 8.864 0 0 1-5.19-1.448.81.81 0 0 0-.64-.11 14.5 14.5 0 0 1-3.487.422"/><path fill="url(#c)" fill-opacity=".8" d="M13.5 26.859C6.045 26.859 0 21.237 0 14.304S6.045 1.75 13.5 1.75 27 7.371 27 14.304c0 3.202-1.288 6.122-3.41 8.34-.648.68-1.11 1.582-.878 2.497.146.58.368 1.137.656 1.656.28.502.023 1.178-.551 1.198a8.864 8.864 0 0 1-5.19-1.448.81.81 0 0 0-.64-.11 14.5 14.5 0 0 1-3.487.422"/><path fill="url(#d)" fill-opacity=".54" d="M13.5 26.859C6.045 26.859 0 21.237 0 14.304S6.045 1.75 13.5 1.75 27 7.371 27 14.304c0 3.202-1.288 6.122-3.41 8.34-.648.68-1.11 1.582-.878 2.497.146.58.368 1.137.656 1.656.28.502.023 1.178-.551 1.198a8.864 8.864 0 0 1-5.19-1.448.81.81 0 0 0-.64-.11 14.5 14.5 0 0 1-3.487.422"/></g><g stroke-linecap="round" stroke-linejoin="round" stroke-width="1.8" filter="url(#e)"><path stroke="#fff" d="m18 10.75 3.938 3.872L18 18.495"/><path stroke="url(#f)" d="m18 10.75 3.938 3.872L18 18.495"/><path stroke="url(#g)" d="m18 10.75 3.938 3.872L18 18.495"/></g><g filter="url(#h)"><path stroke="url(#i)" stroke-linecap="round" stroke-linejoin="round" stroke-width="1.8" d="M15.375 8.5 12 20.67"/></g><g stroke-linecap="round" stroke-linejoin="round" stroke-width="1.8" filter="url(#j)"><path stroke="#fff" d="M9.188 18.495 5.25 14.622l3.938-3.872"/><path stroke="url(#k)" d="M9.188 18.495 5.25 14.622l3.938-3.872"/><path stroke="url(#l)" d="M9.188 18.495 5.25 14.622l3.938-3.872"/></g></g><path fill="#fff" d="M49.236 22.328q-1.146.461-2.228.685-1.068.224-2.228.224-1.859 0-3.296-.54a6.3 6.3 0 0 1-2.412-1.635q-.975-1.08-1.49-2.676-.5-1.608-.5-3.731 0-2.175.553-3.863.553-1.7 1.582-2.86a6.65 6.65 0 0 1 2.492-1.78q1.476-.62 3.309-.62.593 0 1.107.026.527.027 1.028.106.501.066 1.016.184.513.12 1.067.303v3.217a10.2 10.2 0 0 0-2.135-.751 8.6 8.6 0 0 0-1.846-.224q-1.226 0-2.096.448-.87.435-1.437 1.24-.555.79-.818 1.898a10.3 10.3 0 0 0-.263 2.412q0 1.398.263 2.505.277 1.095.844 1.859t1.45 1.173q.884.396 2.096.396.435 0 .937-.08a14 14 0 0 0 1.028-.224q.527-.144 1.028-.33.515-.196.95-.395zm14.964-6.13q0 1.58-.448 2.9-.449 1.305-1.292 2.24a5.7 5.7 0 0 1-2.07 1.451q-1.226.514-2.795.514-1.489 0-2.663-.435a5.2 5.2 0 0 1-1.99-1.292q-.818-.87-1.253-2.162-.435-1.305-.435-3.032 0-1.595.448-2.9.462-1.305 1.305-2.229A5.8 5.8 0 0 1 55.09 9.83q1.226-.515 2.769-.515 1.503 0 2.676.449 1.173.435 1.99 1.305.819.87 1.24 2.162.435 1.279.435 2.966m-3.348.078q0-2.082-.791-3.124-.779-1.055-2.307-1.055-.844 0-1.438.33a2.76 2.76 0 0 0-.975.91 4.1 4.1 0 0 0-.567 1.331 7.5 7.5 0 0 0-.171 1.635q0 2.096.843 3.164.844 1.055 2.308 1.055.803 0 1.397-.317a2.7 2.7 0 0 0 .962-.896q.37-.58.554-1.358a7.2 7.2 0 0 0 .185-1.675M74.866 23l-.079-1.977a10 10 0 0 1-.87.936q-.449.42-.962.725a4.7 4.7 0 0 1-1.108.448 4.6 4.6 0 0 1-1.292.171q-1.186 0-2.11-.474a4.4 4.4 0 0 1-1.555-1.345q-.62-.883-.949-2.136-.33-1.253-.33-2.795 0-1.846.515-3.19.526-1.358 1.45-2.241a5.7 5.7 0 0 1 2.188-1.319q1.265-.435 2.756-.435.501 0 1.002.066.513.066.91.171V4.372h3.216V23zm-5.88-6.592q0 1.107.145 1.899.159.778.449 1.278.303.5.738.739.435.224.989.224.817 0 1.555-.66.74-.658 1.57-1.806V12.23a5 5 0 0 0-.95-.237 7 7 0 0 0-1.12-.093 3 3 0 0 0-1.398.317q-.62.316-1.068.896-.435.58-.672 1.424a6.8 6.8 0 0 0-.238 1.872M88.63 5.94q0 .435-.158.818a2.1 2.1 0 0 1-.448.672 2.2 2.2 0 0 1-.66.448 2.2 2.2 0 0 1-.83.159q-.448 0-.844-.159a2.4 2.4 0 0 1-.672-.448 2.16 2.16 0 0 1 0-2.98 2.1 2.1 0 0 1 .672-.448 2.1 2.1 0 0 1 .844-.17q.45-.001.83.17.383.159.66.449.29.29.448.672t.159.817m-3.56 6.17h-3.783V9.605h7.08v10.89h3.863V23H80.826v-2.505h4.245zM103.042 23v-8.727q0-2.202-1.635-2.202-.817 0-1.569.659-.738.66-1.569 1.793V23h-3.217V9.605h2.782l.08 1.978q.408-.514.843-.936.449-.422.962-.712a4.4 4.4 0 0 1 1.108-.461 5.2 5.2 0 0 1 1.331-.159q1.03 0 1.793.343.765.33 1.279.95.515.606.765 1.476.263.857.263 1.925V23zm16.361-11.048q.37.462.514.976.158.5.158 1.028 0 1.12-.395 1.978a3.85 3.85 0 0 1-1.094 1.437q-.7.579-1.688.883-.975.29-2.162.29-.698 0-1.292-.132-.593-.145-.896-.33-.225.225-.383.502a1.16 1.16 0 0 0-.158.606q0 .21.106.422.105.21.303.382.21.159.488.264.29.105.646.119l3.177.118a7.5 7.5 0 0 1 1.925.277q.87.237 1.489.686.62.447.95 1.094.342.633.342 1.45 0 .936-.422 1.767-.421.83-1.278 1.437-.844.62-2.11.975-1.264.357-2.94.356-1.621 0-2.795-.264-1.16-.25-1.911-.712-.738-.46-1.094-1.107a2.8 2.8 0 0 1-.356-1.397q0-.462.118-.857.119-.396.356-.765.237-.355.593-.699a7 7 0 0 1 .844-.685 2.65 2.65 0 0 1-.989-.95 2.5 2.5 0 0 1-.329-1.239q0-.447.119-.83a4.3 4.3 0 0 1 .303-.752q.198-.356.448-.685t.527-.646a4.3 4.3 0 0 1-.817-1.174q-.316-.698-.316-1.74 0-1.12.395-1.99a4.2 4.2 0 0 1 1.121-1.477 4.7 4.7 0 0 1 1.687-.91 7 7 0 0 1 2.149-.316q.593 0 1.134.066a4.7 4.7 0 0 1 1.002.197h4.64v2.347zm-7.581 12.828q0 .777.778 1.147.792.369 2.215.369.91 0 1.529-.171.633-.172 1.029-.449.395-.276.567-.646a1.8 1.8 0 0 0 .171-.764q0-.357-.171-.607a1.3 1.3 0 0 0-.462-.409 2.7 2.7 0 0 0-.698-.25 6 6 0 0 0-.884-.105l-2.834-.053a5 5 0 0 0-.633.5 3 3 0 0 0-.382.462 1.8 1.8 0 0 0-.185.475q-.04.237-.04.5m.541-10.745q0 1.068.62 1.7.633.62 1.753.62.593 0 1.028-.197.448-.198.739-.528.29-.33.435-.764.144-.435.145-.91 0-1.12-.633-1.74-.62-.633-1.74-.633a2.6 2.6 0 0 0-1.042.198q-.435.198-.725.54-.29.33-.435.778-.145.449-.145.936m15.214 9.097q-2.65-.488-3.955-2.65t-1.305-5.933q0-2.333.541-4.034.554-1.713 1.503-2.821a6 6 0 0 1 2.241-1.661 6.9 6.9 0 0 1 2.755-.554q3.402 0 5.115 2.241t1.714 6.473q0 2.018-.408 3.573-.41 1.556-1.161 2.663a6.3 6.3 0 0 1-1.753 1.78 6.3 6.3 0 0 1-2.202.923q.106.633.343 1.041.25.41.58.646.343.238.739.33t.817.092q.567 0 1.12-.237a3.4 3.4 0 0 0 1.016-.66l1.489 2.216a6.2 6.2 0 0 1-1.819 1.067q-.975.37-1.964.37-1.24 0-2.228-.29a4.45 4.45 0 0 1-1.675-.897 4 4 0 0 1-1.068-1.516q-.381-.91-.435-2.162m5.182-8.662q0-3.059-.805-4.561-.804-1.503-2.65-1.503-.936 0-1.608.395-.672.382-1.107 1.147-.436.75-.646 1.86-.198 1.094-.198 2.504 0 3.033.817 4.548.83 1.517 2.69 1.517.936 0 1.595-.383a3 3 0 0 0 1.094-1.147q.422-.75.62-1.846.198-1.107.198-2.53m8.398-4.865v8.728q0 1.095.409 1.661.408.555 1.239.554.804 0 1.542-.66.752-.672 1.582-1.806V9.606h3.217V23h-2.781l-.08-1.977q-.421.513-.856.936a5 5 0 0 1-.95.725 4.4 4.4 0 0 1-1.107.448 4.7 4.7 0 0 1-1.318.171q-1.029 0-1.807-.33a3.5 3.5 0 0 1-1.278-.962 4.2 4.2 0 0 1-.778-1.476 7 7 0 0 1-.251-1.938V9.605zm22.782 5.67q0 .33-.027.856-.013.527-.052.99h-8.807q0 .883.264 1.555.276.672.764 1.134.501.448 1.187.685.699.237 1.542.237.976 0 2.083-.145a17 17 0 0 0 2.321-.5v2.557q-.515.145-1.121.264t-1.239.21-1.279.133q-.646.052-1.252.052-1.53 0-2.743-.435a5.5 5.5 0 0 1-2.056-1.279q-.844-.856-1.292-2.109t-.448-2.9q0-1.635.448-2.967.448-1.344 1.265-2.294a5.5 5.5 0 0 1 1.978-1.476q1.173-.528 2.61-.528 1.425 0 2.518.449 1.095.435 1.833 1.226a5.3 5.3 0 0 1 1.12 1.885q.383 1.095.383 2.4m-3.27-.462q.013-.79-.197-1.371a2.7 2.7 0 0 0-.581-.976 2.2 2.2 0 0 0-.843-.567 2.8 2.8 0 0 0-1.029-.184q-1.213 0-1.99.817-.779.805-.923 2.281zm16.955 4.245q0 1.148-.514 1.965a4 4 0 0 1-1.345 1.318 6 6 0 0 1-1.898.725 9.8 9.8 0 0 1-2.163.237q-1.476 0-2.663-.145a17 17 0 0 1-2.241-.395v-2.9q1.239.514 2.466.75 1.24.225 2.333.225 1.266 0 1.885-.396.633-.408.633-1.054a1.2 1.2 0 0 0-.132-.554q-.132-.25-.501-.475-.355-.237-1.015-.474a22 22 0 0 0-1.727-.554 12 12 0 0 1-1.74-.62 4.6 4.6 0 0 1-1.226-.83 3.2 3.2 0 0 1-.739-1.094q-.237-.633-.237-1.477 0-.818.369-1.542a3.6 3.6 0 0 1 1.095-1.266q.738-.555 1.832-.87 1.094-.317 2.558-.317 1.265 0 2.241.132.975.132 1.727.29v2.624a13 13 0 0 0-2.162-.514 13 13 0 0 0-1.991-.159q-.989.001-1.595.356-.593.356-.593.99 0 .302.118.54.119.237.462.461.356.225.975.475.633.237 1.661.527 1.16.33 1.952.712.79.369 1.265.844.487.475.699 1.08.211.608.211 1.385m14.305 3.81q-.87.198-1.754.317a13 13 0 0 1-1.674.118q-1.318 0-2.281-.277-.95-.276-1.582-.843a3.44 3.44 0 0 1-.923-1.437q-.29-.884-.29-2.097V12.11h-3.599V9.605h3.599V6.178l3.296-.857v4.284h5.208v2.505h-5.208v6.302q0 1.148.527 1.74.528.58 1.767.58.791 0 1.543-.131a15 15 0 0 0 1.371-.304z"/><defs><linearGradient id="f" x1="18.375" x2="19.875" y1="16.787" y2="18.287" gradientUnits="userSpaceOnUse"><stop stop-color="#fff"/><stop offset=".463" stop-color="#fff"/><stop offset="1" stop-color="#B4B4B4"/></linearGradient><linearGradient id="g" x1="21" x2="19.875" y1="11.912" y2="13.037" gradientUnits="userSpaceOnUse"><stop stop-color="#626262" stop-opacity=".44"/><stop offset="1" stop-color="#fff" stop-opacity="0"/><stop offset="1" stop-color="#fff" stop-opacity="0"/></linearGradient><linearGradient id="i" x1="12.75" x2="15.375" y1="13" y2="13.75" gradientUnits="userSpaceOnUse"><stop stop-color="#fff"/><stop offset=".495" stop-color="#fff"/><stop offset="1" stop-color="#989898"/></linearGradient><linearGradient id="k" x1="7.125" x2="8.625" y1="11.162" y2="12.662" gradientUnits="userSpaceOnUse"><stop stop-color="#fff"/><stop offset=".578" stop-color="#fff"/><stop offset="1" stop-color="#C1C1C1"/></linearGradient><linearGradient id="l" x1="8.25" x2="7.125" y1="15.287" y2="16.412" gradientUnits="userSpaceOnUse"><stop stop-color="#fff" stop-opacity="0"/><stop offset="1" stop-color="#fff"/></linearGradient><filter id="b" width="30" height="29.25" x="-3" y="-1.25" color-interpolation-filters="sRGB" filterUnits="userSpaceOnUse"><feFlood flood-opacity="0" result="BackgroundImageFix"/><feBlend in="SourceGraphic" in2="BackgroundImageFix" result="shape"/><feColorMatrix in="SourceAlpha" result="hardAlpha" values="0 0 0 0 0 0 0 0 0 0 0 0 0 0 0 0 0 0 127 0"/><feOffset dx="-3" dy="-3"/><feGaussianBlur stdDeviation="2.625"/><feComposite in2="hardAlpha" k2="-1" k3="1" operator="arithmetic"/><feColorMatrix values="0 0 0 0 0 0 0 0 0 0 0 0 0 0 0 0 0 0 0.25 0"/><feBlend in2="shape" result="effect1_innerShadow_2302_36"/></filter><filter id="e" width="10.238" height="14.045" x="15.225" y="8.2" color-interpolation-filters="sRGB" filterUnits="userSpaceOnUse"><feFlood flood-opacity="0" result="BackgroundImageFix"/><feColorMatrix in="SourceAlpha" result="hardAlpha" values="0 0 0 0 0 0 0 0 0 0 0 0 0 0 0 0 0 0 127 0"/><feOffset dx=".375" dy=".6"/><feGaussianBlur stdDeviation="1.125"/><feComposite in2="hardAlpha" operator="out"/><feColorMatrix values="0 0 0 0 0 0 0 0 0 0 0 0 0 0 0 0 0 0 0.4 0"/><feBlend in2="BackgroundImageFix" result="effect1_dropShadow_2302_36"/><feBlend in="SourceGraphic" in2="effect1_dropShadow_2302_36" result="shape"/></filter><filter id="h" width="9.675" height="18.471" x="9.225" y="5.95" color-interpolation-filters="sRGB" filterUnits="userSpaceOnUse"><feFlood flood-opacity="0" result="BackgroundImageFix"/><feColorMatrix in="SourceAlpha" result="hardAlpha" values="0 0 0 0 0 0 0 0 0 0 0 0 0 0 0 0 0 0 127 0"/><feOffset dx=".375" dy=".6"/><feGaussianBlur stdDeviation="1.125"/><feComposite in2="hardAlpha" operator="out"/><feColorMatrix values="0 0 0 0 0 0 0 0 0 0 0 0 0 0 0 0 0 0 0.4 0"/><feBlend in2="BackgroundImageFix" result="effect1_dropShadow_2302_36"/><feBlend in="SourceGraphic" in2="effect1_dropShadow_2302_36" result="shape"/></filter><filter id="j" width="10.238" height="14.045" x="2.475" y="8.2" color-interpolation-filters="sRGB" filterUnits="userSpaceOnUse"><feFlood flood-opacity="0" result="BackgroundImageFix"/><feColorMatrix in="SourceAlpha" result="hardAlpha" values="0 0 0 0 0 0 0 0 0 0 0 0 0 0 0 0 0 0 127 0"/><feOffset dx=".375" dy=".6"/><feGaussianBlur stdDeviation="1.125"/><feComposite in2="hardAlpha" operator="out"/><feColorMatrix values="0 0 0 0 0 0 0 0 0 0 0 0 0 0 0 0 0 0 0.4 0"/><feBlend in2="BackgroundImageFix" result="effect1_dropShadow_2302_36"/><feBlend in="SourceGraphic" in2="effect1_dropShadow_2302_36" result="shape"/></filter><radialGradient id="c" cx="0" cy="0" r="1" gradientTransform="rotate(52.772 -5.69 13.184)scale(22.9341 23.8415)" gradientUnits="userSpaceOnUse"><stop stop-color="#43AEC5"/><stop offset="1" stop-color="#3B93A6" stop-opacity="0"/></radialGradient><radialGradient id="d" cx="0" cy="0" r="1" gradientTransform="matrix(6 6.84783 -7.13279 6.24967 7.5 7.076)" gradientUnits="userSpaceOnUse"><stop stop-color="#B2EEFB"/><stop offset="1" stop-color="#fff" stop-opacity="0"/></radialGradient><clipPath id="a"><path fill="#fff" d="M0 1h27v27H0z"/></clipPath></defs></svg>